# xmcd
#
# Track frame offsets:
#	150
#	9457
#	18997
#	25790
#	36907
#	46797
#	56257
#	73547
#	85600
#	102272
#	115687
#	125952
#	143680
#	158475
#	169540
#	186475
#	198917
#	212860
#	226865
#	241917
#	255957
#	270750
#	287622
#	299945
#
# Disc length: 4194 seconds
#
# Revision: 0
# Processed by: cddbd v1.5.2PL0 Copyright (c) Steve Scherf et al.
# Submitted via: VUPlayer 2.46
#
DISCID=40106018
DTITLE=Buddy Greco - Buddy And Soul - Soft And Gentle
DYEAR=1963
DGENRE=Easy Listening
TTITLE0=Come Rain or Come Shine
TTITLE1=How Long Has This Been Going On?
TTITLE2=I'm in Love
TTITLE3=After the Lights go Down Low
TTITLE4=People will Say we're in Love
TTITLE5=I Didn't Know what Time it Was
TTITLE6=I'm gonna Laugh you Out of my Life
TTITLE7=Let Me Love You
TTITLE8=But Beautiful
TTITLE9=Fly Me to the Moon (in other words)
TTITLE10=Just Walk Away
TTITLE11='Round Midnight
TTITLE12=I Wish You Love
TTITLE13=What Kind of Fool am I
TTITLE14=Nancy
TTITLE15=My Funny Valentine
TTITLE16=Then I'll be Tired of You
TTITLE17=Gigi
TTITLE18=The Easy Way
TTITLE19=I Left my Heart in San Francisco
TTITLE20=Moonlight in vermont
TTITLE21=Bewitched
TTITLE22=Passing Pastels
TTITLE23=Angel Eyes
EXTD=1st releqase:\n1962 Buddy And Soul \n1963 Soft And Gentle\n\nReleased 1996
EXTT0=
EXTT1=
EXTT2=
EXTT3=
EXTT4=
EXTT5=
EXTT6=
EXTT7=
EXTT8=
EXTT9=
EXTT10=
EXTT11=
EXTT12=
EXTT13=
EXTT14=
EXTT15=
EXTT16=
EXTT17=
EXTT18=
EXTT19=
EXTT20=
EXTT21=
EXTT22=
EXTT23=
PLAYORDER=
